<svg width="14" height="14" viewBox="0 0 14 14" fill="none" xmlns="http://www.w3.org/2000/svg">
<path d="M4.08337 8.37806L5.25004 9.49513L7.58337 7.26099" stroke="#0032FF" stroke-width="0.666667" stroke-linecap="round" stroke-linejoin="round"/>
<path d="M1.75012 5.02675V11.1706C1.75012 11.3188 1.81158 11.4608 1.92098 11.5656C2.03037 11.6703 2.17875 11.7292 2.33346 11.7292H11.6668C11.8215 11.7292 11.9699 11.6703 12.0793 11.5656C12.1887 11.4608 12.2501 11.3188 12.2501 11.1706V5.02675M1.75012 5.02675H12.2501M1.75012 5.02675V2.79261C1.75012 2.64447 1.81158 2.50241 1.92098 2.39766C2.03037 2.29292 2.17875 2.23407 2.33346 2.23407H11.6668C11.8215 2.23407 11.9699 2.29292 12.0793 2.39766C12.1887 2.50241 12.2501 2.64447 12.2501 2.79261V5.02675M9.33346 1.67554V3.35114M4.66679 1.67554V3.35114M7.58346 9.49503L9.91679 7.26089" stroke="#0032FF" stroke-width="0.666667" stroke-linecap="round" stroke-linejoin="round"/>
</svg>
