<svg width="9" height="11" viewBox="0 0 9 11" fill="none" xmlns="http://www.w3.org/2000/svg">
<path d="M4.5104 0L4.07993 0.0381986L3.65613 0.113181L3.24234 0.223532L2.84523 0.366424L2.46815 0.544684L2.11276 0.754068L1.78406 0.994578L1.4854 1.26055L1.22178 1.54917L0.991523 1.86041L0.801314 2.19005L0.651148 2.53525L0.542695 2.88895L0.477623 3.25254L0.455933 3.61896L0.477623 4.21175L0.542695 4.80312L0.652816 5.38883L0.806319 5.96747L1.00153 6.53762L1.24013 7.09645L1.51877 7.63972L1.83746 8.16742L2.19452 8.67815L2.58995 9.16908L3.02043 9.63736L3.48427 10.0816H3.48594L3.69117 10.2386L3.92643 10.3646L4.18004 10.4579L4.45034 10.5159L4.72731 10.54L5.00428 10.5159L5.27291 10.4579L5.52819 10.3646L5.76345 10.2386L5.97035 10.0816L6.43419 9.63736L6.863 9.16908L7.2601 8.67815L7.6155 8.16742L7.93418 7.63972L8.21282 7.09645L8.45142 6.53762L8.6483 5.96747L8.80014 5.38883L8.91026 4.80312L8.97533 4.21175L8.99869 3.61896L8.97533 3.25254L8.91026 2.88895L8.80347 2.53525L8.65164 2.19005L8.46143 1.86041L8.23451 1.54917L7.96922 1.26055L7.66889 0.994578L7.34019 0.754068L6.98647 0.544684L6.60939 0.366424L6.21061 0.223532L5.79682 0.113181L5.37302 0.0381986L4.94255 0H4.5104ZM4.72731 0.721529L5.1094 0.739921L5.48815 0.793682L5.85689 0.884227L6.20894 1.00873L6.54598 1.16576L6.85799 1.35393L7.14331 1.57039L7.39859 1.81231L7.6205 2.07687L7.8057 2.36124L7.95253 2.66258L8.05932 2.97383L8.12439 3.29357L8.14441 3.61755L8.12439 4.16648L8.06266 4.71116L7.96088 5.2516L7.82072 5.78779L7.63885 6.31267L7.42028 6.82764L7.16166 7.3313L6.868 7.81798L6.53764 8.28909L6.17557 8.74182L5.7768 9.17332L5.34966 9.5836L5.21618 9.68122L5.06602 9.75196L4.90084 9.7944L4.72731 9.81421L4.55379 9.7944L4.3886 9.75196L4.23844 9.68122L4.10496 9.5836L3.67782 9.17332L3.27905 8.74182L2.91698 8.28909L2.58662 7.81798L2.29296 7.3313L2.03434 6.82764L1.81577 6.31267L1.6339 5.78779L1.49374 5.2516L1.39196 4.71116L1.33023 4.16648L1.31021 3.61755L1.3319 3.29357L1.3953 2.97383L1.50042 2.66258L1.64725 2.36124L1.83412 2.07687L2.05603 1.81231L2.31131 1.57039L2.59663 1.35393L2.90864 1.16576L3.24401 1.00873L3.5994 0.884227L3.96647 0.793682L4.34355 0.739921L4.72731 0.721529ZM4.65723 2.16883L4.38527 2.19713L4.12164 2.26362L3.87303 2.36124L3.64612 2.49423L3.44923 2.65551L3.28405 2.84226L3.15558 3.05023L3.06715 3.27093L3.02376 3.50012V3.73497L3.06715 3.96416L3.15558 4.18487L3.28405 4.39142L3.44923 4.57817L3.64612 4.73804L3.87303 4.87103L4.12164 4.97148L4.38527 5.03655L4.65723 5.06485L4.93254 5.06061L5.20284 5.0125L5.45978 4.92903L5.69838 4.81302L5.91195 4.66589L6.09382 4.49187L6.24065 4.2938L6.34743 4.08018L6.41417 3.85381L6.43586 3.62038V3.61896L6.41417 3.38694L6.34743 3.16058L6.24065 2.94554L6.09382 2.74888L5.91195 2.57487L5.69838 2.4249L5.45978 2.30889L5.20284 2.22684L4.93254 2.17873L4.65723 2.16883ZM4.72731 2.89319L4.91585 2.913L5.09772 2.96676L5.25956 3.05306L5.39638 3.16765L5.49816 3.30347L5.5599 3.45768L5.58159 3.61896L5.5599 3.77883L5.49816 3.93304L5.39638 4.07027L5.25956 4.18628L5.09772 4.27258L4.91585 4.32634L4.72731 4.34474L4.5371 4.32634L4.35523 4.27258L4.19506 4.18628L4.05991 4.07027L3.95813 3.93304L3.89473 3.77883L3.87303 3.61896L3.89473 3.45768L3.95813 3.30347L4.05991 3.16765L4.19506 3.05306L4.35523 2.96676L4.5371 2.913L4.72731 2.89319Z" fill="#0032FF"/>
</svg>
