<svg width="13" height="13" viewBox="0 0 13 13" fill="none" xmlns="http://www.w3.org/2000/svg">
<g clip-path="url(#clip0_101_13246)">
<path d="M6.89005 5.85005C6.63005 5.78505 6.37005 5.65505 6.17505 5.46005C5.98005 5.39505 5.91505 5.20005 5.91505 5.07005C5.91505 4.94005 5.98005 4.74505 6.11005 4.68005C6.30505 4.55005 6.50005 4.42005 6.69505 4.48505C7.08505 4.48505 7.41005 4.68005 7.60505 4.94005L8.19005 4.16005C7.99505 3.96505 7.80005 3.83505 7.60505 3.70505C7.41005 3.57505 7.15005 3.51005 6.89005 3.51005V2.60005H6.11005V3.51005C5.78505 3.57505 5.46005 3.77005 5.20005 4.03005C4.94005 4.35505 4.74505 4.74505 4.81005 5.13505C4.81005 5.52505 4.94005 5.91505 5.20005 6.17505C5.52505 6.50005 5.98005 6.69505 6.37005 6.89005C6.56505 6.95505 6.82505 7.08505 7.02005 7.21505C7.15005 7.34505 7.21505 7.54005 7.21505 7.73505C7.21505 7.93005 7.15005 8.12505 7.02005 8.32005C6.82505 8.51505 6.56505 8.58005 6.37005 8.58005C6.11005 8.58005 5.78505 8.51505 5.59005 8.32005C5.39505 8.19005 5.20005 7.99505 5.07005 7.80005L4.42005 8.51505C4.61505 8.77505 4.81005 8.97005 5.07005 9.16505C5.39505 9.36005 5.78505 9.55505 6.17505 9.55505V10.4H6.89005V9.42505C7.28005 9.36005 7.60505 9.16505 7.86505 8.90505C8.19005 8.58005 8.38505 8.06005 8.38505 7.60505C8.38505 7.21505 8.25505 6.76005 7.93005 6.50005C7.60505 6.17505 7.28005 5.98005 6.89005 5.85005ZM6.50005 1.30005C3.64005 1.30005 1.30005 3.64005 1.30005 6.50005C1.30005 9.36005 3.64005 11.7 6.50005 11.7C9.36005 11.7 11.7 9.36005 11.7 6.50005C11.7 3.64005 9.36005 1.30005 6.50005 1.30005ZM6.50005 10.985C4.03005 10.985 2.01505 8.97005 2.01505 6.50005C2.01505 4.03005 4.03005 2.01505 6.50005 2.01505C8.97005 2.01505 10.985 4.03005 10.985 6.50005C10.985 8.97005 8.97005 10.985 6.50005 10.985Z" fill="#0032FF"/>
</g>
<defs>
<clipPath id="clip0_101_13246">
<rect width="13" height="13" fill="white"/>
</clipPath>
</defs>
</svg>
